<svg width="1440" height="150" viewBox="0 0 1440 150" fill="none" xmlns="http://www.w3.org/2000/svg">
<g clip-path="url(#clip0_6_7)">
<mask id="path-1-outside-1_6_7" maskUnits="userSpaceOnUse" x="21" y="43" width="732" height="223" fill="black">
<rect fill="white" x="21" y="43" width="732" height="223"/>
<path d="M150.826 210V145.712C150.826 138.46 149.029 132.809 145.436 128.758C141.843 124.642 136.975 122.584 130.834 122.584C127.045 122.584 123.647 123.466 120.642 125.23C117.637 126.929 115.252 129.477 113.488 132.874C111.724 136.206 110.842 140.191 110.842 144.83L100.356 138.656C100.291 131.339 101.924 124.903 105.256 119.35C108.653 113.731 113.227 109.354 118.976 106.218C124.725 103.082 131.128 101.514 138.184 101.514C149.879 101.514 158.829 105.042 165.036 112.098C171.308 119.089 174.444 128.301 174.444 139.734V210H150.826ZM23.524 210V104.16H44.398V136.99H47.338V210H23.524ZM87.322 210V146.006C87.322 138.623 85.5253 132.874 81.932 128.758C78.3387 124.642 73.4387 122.584 67.232 122.584C61.2213 122.584 56.3867 124.642 52.728 128.758C49.1347 132.874 47.338 138.231 47.338 144.83L36.754 137.774C36.754 130.914 38.4527 124.74 41.85 119.252C45.2473 113.764 49.8207 109.452 55.57 106.316C61.3847 103.115 67.8853 101.514 75.072 101.514C82.9773 101.514 89.576 103.213 94.868 106.61C100.225 109.942 104.211 114.515 106.824 120.33C109.503 126.079 110.842 132.58 110.842 139.832V210H87.322ZM201.965 88.088V66.43H225.583V88.088H201.965ZM201.965 210V104.16H225.583V210H201.965ZM328.145 210V159.04C328.145 155.708 327.916 152.017 327.459 147.966C327.001 143.915 325.923 140.028 324.225 136.304C322.591 132.515 320.109 129.411 316.777 126.994C313.51 124.577 309.067 123.368 303.449 123.368C300.443 123.368 297.471 123.858 294.531 124.838C291.591 125.818 288.912 127.517 286.495 129.934C284.143 132.286 282.248 135.553 280.811 139.734C279.373 143.85 278.655 149.142 278.655 155.61L264.641 149.632C264.641 140.616 266.372 132.449 269.835 125.132C273.363 117.815 278.524 112 285.319 107.688C292.113 103.311 300.476 101.122 310.407 101.122C318.247 101.122 324.715 102.429 329.811 105.042C334.907 107.655 338.957 110.987 341.963 115.038C344.968 119.089 347.189 123.401 348.627 127.974C350.064 132.547 350.979 136.892 351.371 141.008C351.828 145.059 352.057 148.358 352.057 150.906V210H328.145ZM254.743 210V104.16H275.813V136.99H278.655V210H254.743ZM379.59 88.088V66.43H403.208V88.088H379.59ZM379.59 210V104.16H403.208V210H379.59ZM416.604 263.76V238.448H422.316C428.886 238.448 433.553 236.917 436.316 233.856C439.078 230.795 440.46 226.277 440.46 220.304V89.04H467.34V232.4C467.34 242.181 464.465 249.835 458.716 255.36C453.041 260.96 445.126 263.76 434.972 263.76H416.604ZM440.46 70.672V45.92H467.34V70.672H440.46ZM552.479 213.36C540.383 213.36 529.818 210.635 520.783 205.184C511.748 199.733 504.73 192.229 499.727 182.672C494.799 173.04 492.335 161.989 492.335 149.52C492.335 136.827 494.874 125.701 499.951 116.144C505.028 106.587 512.084 99.12 521.119 93.744C530.154 88.368 540.607 85.68 552.479 85.68C564.65 85.68 575.252 88.4053 584.287 93.856C593.322 99.3067 600.34 106.848 605.343 116.48C610.346 126.037 612.847 137.051 612.847 149.52C612.847 162.064 610.308 173.152 605.231 182.784C600.228 192.341 593.21 199.845 584.175 205.296C575.14 210.672 564.575 213.36 552.479 213.36ZM552.479 188.048C563.231 188.048 571.22 184.464 576.447 177.296C581.674 170.128 584.287 160.869 584.287 149.52C584.287 137.797 581.636 128.464 576.335 121.52C571.034 114.501 563.082 110.992 552.479 110.992C545.236 110.992 539.263 112.635 534.559 115.92C529.93 119.131 526.495 123.648 524.255 129.472C522.015 135.221 520.895 141.904 520.895 149.52C520.895 161.243 523.546 170.613 528.847 177.632C534.223 184.576 542.1 188.048 552.479 188.048ZM695.652 213.36C683.854 213.36 673.961 210.56 665.972 204.96C657.982 199.36 651.972 191.744 647.94 182.112C643.908 172.405 641.892 161.541 641.892 149.52C641.892 137.349 643.908 126.448 647.94 116.816C651.972 107.184 657.87 99.6053 665.636 94.08C673.476 88.48 683.145 85.68 694.644 85.68C706.068 85.68 715.961 88.48 724.324 94.08C732.761 99.6053 739.294 107.184 743.924 116.816C748.553 126.373 750.868 137.275 750.868 149.52C750.868 161.616 748.59 172.48 744.036 182.112C739.481 191.744 733.06 199.36 724.772 204.96C716.484 210.56 706.777 213.36 695.652 213.36ZM637.3 210V48.72H664.516V125.104H661.156V210H637.3ZM691.508 189.168C698.526 189.168 704.313 187.413 708.868 183.904C713.422 180.395 716.782 175.653 718.948 169.68C721.188 163.632 722.308 156.912 722.308 149.52C722.308 142.203 721.188 135.557 718.948 129.584C716.708 123.536 713.236 118.757 708.532 115.248C703.828 111.664 697.854 109.872 690.612 109.872C683.742 109.872 678.142 111.552 673.812 114.912C669.481 118.197 666.27 122.827 664.18 128.8C662.164 134.699 661.156 141.605 661.156 149.52C661.156 157.36 662.164 164.267 664.18 170.24C666.27 176.213 669.518 180.88 673.924 184.24C678.404 187.525 684.265 189.168 691.508 189.168Z"/>
</mask>
<path d="M150.826 210H148.826V212H150.826V210ZM145.436 128.758L143.929 130.073L143.935 130.079L143.94 130.085L145.436 128.758ZM120.642 125.23L121.626 126.971L121.64 126.963L121.654 126.955L120.642 125.23ZM113.488 132.874L115.256 133.81L115.259 133.803L115.263 133.796L113.488 132.874ZM110.842 144.83L109.827 146.553L112.842 148.328V144.83H110.842ZM100.356 138.656L98.3561 138.674L98.3662 139.805L99.3413 140.379L100.356 138.656ZM105.256 119.35L103.545 118.315L103.541 118.321L105.256 119.35ZM118.976 106.218L119.934 107.974L119.934 107.974L118.976 106.218ZM165.036 112.098L163.534 113.419L163.541 113.426L163.547 113.434L165.036 112.098ZM174.444 210V212H176.444V210H174.444ZM23.524 210H21.524V212H23.524V210ZM23.524 104.16V102.16H21.524V104.16H23.524ZM44.398 104.16H46.398V102.16H44.398V104.16ZM44.398 136.99H42.398V138.99H44.398V136.99ZM47.338 136.99H49.338V134.99H47.338V136.99ZM47.338 210V212H49.338V210H47.338ZM87.322 210H85.322V212H87.322V210ZM81.932 128.758L83.4386 127.443L83.4386 127.443L81.932 128.758ZM52.728 128.758L51.2332 127.429L51.2272 127.436L51.2214 127.443L52.728 128.758ZM47.338 144.83L46.2286 146.494L49.338 148.567V144.83H47.338ZM36.754 137.774H34.754V138.844L35.6446 139.438L36.754 137.774ZM41.85 119.252L40.1495 118.199L40.1495 118.199L41.85 119.252ZM55.57 106.316L56.5277 108.072L56.5346 108.068L55.57 106.316ZM94.868 106.61L93.7875 108.293L93.7996 108.301L93.8117 108.308L94.868 106.61ZM106.824 120.33L105 121.15L105.005 121.162L105.011 121.175L106.824 120.33ZM110.842 210V212H112.842V210H110.842ZM152.826 210V145.712H148.826V210H152.826ZM152.826 145.712C152.826 138.139 150.947 131.956 146.932 127.431L143.94 130.085C147.112 133.661 148.826 138.781 148.826 145.712H152.826ZM146.943 127.443C142.92 122.835 137.473 120.584 130.834 120.584V124.584C136.478 124.584 140.765 126.449 143.929 130.073L146.943 127.443ZM130.834 120.584C126.721 120.584 122.968 121.545 119.63 123.505L121.654 126.955C124.326 125.387 127.369 124.584 130.834 124.584V120.584ZM119.658 123.489C116.279 125.399 113.635 128.25 111.713 131.952L115.263 133.796C116.869 130.704 118.994 128.459 121.626 126.971L119.658 123.489ZM111.72 131.938C109.773 135.618 108.842 139.939 108.842 144.83H112.842C112.842 140.443 113.675 136.794 115.256 133.81L111.72 131.938ZM111.857 143.107L101.371 136.933L99.3413 140.379L109.827 146.553L111.857 143.107ZM102.356 138.638C102.293 131.64 103.852 125.577 106.971 120.379L103.541 118.321C99.9957 124.23 98.2879 131.037 98.3561 138.674L102.356 138.638ZM106.967 120.385C110.182 115.068 114.496 110.94 119.934 107.974L118.018 104.462C111.958 107.768 107.124 112.395 103.545 118.315L106.967 120.385ZM119.934 107.974C125.367 105.01 131.436 103.514 138.184 103.514V99.514C130.82 99.514 124.084 101.154 118.018 104.462L119.934 107.974ZM138.184 103.514C149.456 103.514 157.797 106.897 163.534 113.419L166.538 110.777C159.861 103.187 150.302 99.514 138.184 99.514V103.514ZM163.547 113.434C169.422 119.982 172.444 128.681 172.444 139.734H176.444C176.444 127.92 173.194 118.196 166.525 110.762L163.547 113.434ZM172.444 139.734V210H176.444V139.734H172.444ZM174.444 208H150.826V212H174.444V208ZM25.524 210V104.16H21.524V210H25.524ZM23.524 106.16H44.398V102.16H23.524V106.16ZM42.398 104.16V136.99H46.398V104.16H42.398ZM44.398 138.99H47.338V134.99H44.398V138.99ZM45.338 136.99V210H49.338V136.99H45.338ZM47.338 208H23.524V212H47.338V208ZM89.322 210V146.006H85.322V210H89.322ZM89.322 146.006C89.322 138.311 87.447 132.034 83.4386 127.443L80.4254 130.073C83.6037 133.714 85.322 138.936 85.322 146.006H89.322ZM83.4386 127.443C79.4116 122.83 73.9288 120.584 67.232 120.584V124.584C72.9485 124.584 77.2658 126.454 80.4254 130.073L83.4386 127.443ZM67.232 120.584C60.7087 120.584 55.3087 122.844 51.2332 127.429L54.2228 130.087C57.4647 126.44 61.734 124.584 67.232 124.584V120.584ZM51.2214 127.443C47.247 131.995 45.338 137.853 45.338 144.83H49.338C49.338 138.61 51.0223 133.753 54.2346 130.073L51.2214 127.443ZM48.4474 143.166L37.8634 136.11L35.6446 139.438L46.2286 146.494L48.4474 143.166ZM38.754 137.774C38.754 131.262 40.3614 125.456 43.5505 120.305L40.1495 118.199C36.5439 124.024 34.754 130.566 34.754 137.774H38.754ZM43.5505 120.305C46.7626 115.116 51.0781 111.044 56.5277 108.072L54.6123 104.56C48.5633 107.86 43.7321 112.412 40.1495 118.199L43.5505 120.305ZM56.5346 108.068C62.0297 105.043 68.194 103.514 75.072 103.514V99.514C67.5767 99.514 60.7397 101.187 54.6054 104.564L56.5346 108.068ZM75.072 103.514C82.6923 103.514 88.8916 105.15 93.7875 108.293L95.9485 104.927C90.2604 101.275 83.2623 99.514 75.072 99.514V103.514ZM93.8117 108.308C98.8277 111.428 102.548 115.694 105 121.15L108.648 119.51C105.874 113.337 101.623 108.456 95.9243 104.912L93.8117 108.308ZM105.011 121.175C107.55 126.624 108.842 132.83 108.842 139.832H112.842C112.842 132.33 111.455 125.535 108.637 119.485L105.011 121.175ZM108.842 139.832V210H112.842V139.832H108.842ZM110.842 208H87.322V212H110.842V208ZM201.965 88.088H199.965V90.088H201.965V88.088ZM201.965 66.43V64.43H199.965V66.43H201.965ZM225.583 66.43H227.583V64.43H225.583V66.43ZM225.583 88.088V90.088H227.583V88.088H225.583ZM201.965 210H199.965V212H201.965V210ZM201.965 104.16V102.16H199.965V104.16H201.965ZM225.583 104.16H227.583V102.16H225.583V104.16ZM225.583 210V212H227.583V210H225.583ZM203.965 88.088V66.43H199.965V88.088H203.965ZM201.965 68.43H225.583V64.43H201.965V68.43ZM223.583 66.43V88.088H227.583V66.43H223.583ZM225.583 86.088H201.965V90.088H225.583V86.088ZM203.965 210V104.16H199.965V210H203.965ZM201.965 106.16H225.583V102.16H201.965V106.16ZM223.583 104.16V210H227.583V104.16H223.583ZM225.583 208H201.965V212H225.583V208ZM328.145 210H326.145V212H328.145V210ZM327.459 147.966L329.446 147.742L329.446 147.742L327.459 147.966ZM324.225 136.304L322.388 137.096L322.396 137.115L322.405 137.134L324.225 136.304ZM316.777 126.994L315.587 128.602L315.595 128.607L315.602 128.613L316.777 126.994ZM294.531 124.838L295.163 126.735L295.163 126.735L294.531 124.838ZM286.495 129.934L285.081 128.52L285.081 128.52L286.495 129.934ZM280.811 139.734L282.699 140.393L282.702 140.384L280.811 139.734ZM278.655 155.61L277.87 157.45L280.655 158.638V155.61H278.655ZM264.641 149.632H262.641V150.953L263.856 151.472L264.641 149.632ZM269.835 125.132L268.033 124.263L268.03 124.27L268.027 124.277L269.835 125.132ZM285.319 107.688L286.39 109.377L286.402 109.369L285.319 107.688ZM329.811 105.042L330.723 103.262L330.723 103.262L329.811 105.042ZM341.963 115.038L340.357 116.23L340.357 116.23L341.963 115.038ZM348.627 127.974L350.535 127.374L350.535 127.374L348.627 127.974ZM351.371 141.008L349.38 141.198L349.381 141.215L349.383 141.232L351.371 141.008ZM352.057 210V212H354.057V210H352.057ZM254.743 210H252.743V212H254.743V210ZM254.743 104.16V102.16H252.743V104.16H254.743ZM275.813 104.16H277.813V102.16H275.813V104.16ZM275.813 136.99H273.813V138.99H275.813V136.99ZM278.655 136.99H280.655V134.99H278.655V136.99ZM278.655 210V212H280.655V210H278.655ZM330.145 210V159.04H326.145V210H330.145ZM330.145 159.04C330.145 155.619 329.91 151.851 329.446 147.742L325.471 148.19C325.922 152.182 326.145 155.797 326.145 159.04H330.145ZM329.446 147.742C328.965 143.481 327.83 139.389 326.044 135.474L322.405 137.134C324.017 140.667 325.038 144.35 325.471 148.19L329.446 147.742ZM326.061 135.512C324.286 131.394 321.575 128.004 317.951 125.375L315.602 128.613C318.642 130.818 320.897 133.636 322.388 137.096L326.061 135.512ZM317.966 125.386C314.246 122.633 309.335 121.368 303.449 121.368V125.368C308.799 125.368 312.774 126.52 315.587 128.602L317.966 125.386ZM303.449 121.368C300.222 121.368 297.036 121.895 293.898 122.941L295.163 126.735C297.906 125.821 300.665 125.368 303.449 125.368V121.368ZM293.898 122.941C290.634 124.029 287.694 125.906 285.081 128.52L287.909 131.348C290.13 129.127 292.547 127.607 295.163 126.735L293.898 122.941ZM285.081 128.52C282.455 131.146 280.424 134.705 278.919 139.084L282.702 140.384C284.072 136.4 285.831 133.426 287.909 131.348L285.081 128.52ZM278.923 139.075C277.385 143.479 276.655 149.015 276.655 155.61H280.655C280.655 149.269 281.362 144.221 282.699 140.393L278.923 139.075ZM279.439 153.77L265.425 147.792L263.856 151.472L277.87 157.45L279.439 153.77ZM266.641 149.632C266.641 140.878 268.32 133.008 271.643 125.987L268.027 124.277C264.424 131.89 262.641 140.354 262.641 149.632H266.641ZM271.636 126.001C275.004 119.016 279.914 113.487 286.39 109.377L284.247 105.999C277.134 110.513 271.722 116.613 268.033 124.263L271.636 126.001ZM286.402 109.369C292.807 105.243 300.772 103.122 310.407 103.122V99.122C300.18 99.122 291.42 101.378 284.236 106.007L286.402 109.369ZM310.407 103.122C318.04 103.122 324.169 104.397 328.898 106.822L330.723 103.262C325.26 100.461 318.453 99.122 310.407 99.122V103.122ZM328.898 106.822C333.758 109.314 337.558 112.457 340.357 116.23L343.569 113.846C340.357 109.517 336.055 105.997 330.723 103.262L328.898 106.822ZM340.357 116.23C343.236 120.111 345.352 124.224 346.719 128.574L350.535 127.374C349.027 122.577 346.7 118.067 343.569 113.846L340.357 116.23ZM346.719 128.574C348.121 133.034 349.003 137.241 349.38 141.198L353.362 140.818C352.955 136.543 352.008 132.06 350.535 127.374L346.719 128.574ZM349.383 141.232C349.837 145.247 350.057 148.464 350.057 150.906H354.057C354.057 148.252 353.82 144.87 353.358 140.784L349.383 141.232ZM350.057 150.906V210H354.057V150.906H350.057ZM352.057 208H328.145V212H352.057V208ZM256.743 210V104.16H252.743V210H256.743ZM254.743 106.16H275.813V102.16H254.743V106.16ZM273.813 104.16V136.99H277.813V104.16H273.813ZM275.813 138.99H278.655V134.99H275.813V138.99ZM276.655 136.99V210H280.655V136.99H276.655ZM278.655 208H254.743V212H278.655V208ZM379.59 88.088H377.59V90.088H379.59V88.088ZM379.59 66.43V64.43H377.59V66.43H379.59ZM403.208 66.43H405.208V64.43H403.208V66.43ZM403.208 88.088V90.088H405.208V88.088H403.208ZM379.59 210H377.59V212H379.59V210ZM379.59 104.16V102.16H377.59V104.16H379.59ZM403.208 104.16H405.208V102.16H403.208V104.16ZM403.208 210V212H405.208V210H403.208ZM381.59 88.088V66.43H377.59V88.088H381.59ZM379.59 68.43H403.208V64.43H379.59V68.43ZM401.208 66.43V88.088H405.208V66.43H401.208ZM403.208 86.088H379.59V90.088H403.208V86.088ZM381.59 210V104.16H377.59V210H381.59ZM379.59 106.16H403.208V102.16H379.59V106.16ZM401.208 104.16V210H405.208V104.16H401.208ZM403.208 208H379.59V212H403.208V208ZM416.604 263.76H414.604V265.76H416.604V263.76ZM416.604 238.448V236.448H414.604V238.448H416.604ZM436.316 233.856L437.801 235.196L437.801 235.196L436.316 233.856ZM440.46 89.04V87.04H438.46V89.04H440.46ZM467.34 89.04H469.34V87.04H467.34V89.04ZM458.716 255.36L457.33 253.918L457.32 253.927L457.311 253.936L458.716 255.36ZM440.46 70.672H438.46V72.672H440.46V70.672ZM440.46 45.92V43.92H438.46V45.92H440.46ZM467.34 45.92H469.34V43.92H467.34V45.92ZM467.34 70.672V72.672H469.34V70.672H467.34ZM418.604 263.76V238.448H414.604V263.76H418.604ZM416.604 240.448H422.316V236.448H416.604V240.448ZM422.316 240.448C429.123 240.448 434.483 238.872 437.801 235.196L434.831 232.516C432.623 234.963 428.649 236.448 422.316 236.448V240.448ZM437.801 235.196C441.017 231.632 442.46 226.553 442.46 220.304H438.46C438.46 226.001 437.14 229.958 434.831 232.516L437.801 235.196ZM442.46 220.304V89.04H438.46V220.304H442.46ZM440.46 91.04H467.34V87.04H440.46V91.04ZM465.34 89.04V232.4H469.34V89.04H465.34ZM465.34 232.4C465.34 241.769 462.601 248.852 457.33 253.918L460.102 256.802C466.329 250.817 469.34 242.594 469.34 232.4H465.34ZM457.311 253.936C452.106 259.073 444.751 261.76 434.972 261.76V265.76C445.502 265.76 453.976 262.847 460.121 256.784L457.311 253.936ZM434.972 261.76H416.604V265.76H434.972V261.76ZM442.46 70.672V45.92H438.46V70.672H442.46ZM440.46 47.92H467.34V43.92H440.46V47.92ZM465.34 45.92V70.672H469.34V45.92H465.34ZM467.34 68.672H440.46V72.672H467.34V68.672ZM520.783 205.184L521.816 203.472L521.816 203.472L520.783 205.184ZM499.727 182.672L497.947 183.583L497.951 183.591L497.955 183.599L499.727 182.672ZM499.951 116.144L498.185 115.206L498.185 115.206L499.951 116.144ZM521.119 93.744L520.096 92.0253L520.096 92.0253L521.119 93.744ZM584.287 93.856L585.32 92.1435L585.32 92.1435L584.287 93.856ZM605.343 116.48L603.568 117.402L603.571 117.407L605.343 116.48ZM605.231 182.784L603.462 181.851L603.459 181.857L605.231 182.784ZM584.175 205.296L585.198 207.015L585.208 207.008L584.175 205.296ZM576.447 177.296L574.831 176.118L574.831 176.118L576.447 177.296ZM576.335 121.52L574.739 122.725L574.745 122.734L576.335 121.52ZM534.559 115.92L535.699 117.563L535.704 117.56L534.559 115.92ZM524.255 129.472L526.119 130.198L526.122 130.19L524.255 129.472ZM528.847 177.632L527.251 178.837L527.258 178.847L527.266 178.856L528.847 177.632ZM552.479 211.36C540.693 211.36 530.496 208.708 521.816 203.472L519.75 206.896C529.14 212.561 540.073 215.36 552.479 215.36V211.36ZM521.816 203.472C513.102 198.214 506.336 190.985 501.499 181.745L497.955 183.599C503.124 193.474 510.394 201.252 519.75 206.896L521.816 203.472ZM501.507 181.761C496.744 172.451 494.335 161.721 494.335 149.52H490.335C490.335 162.258 492.854 173.629 497.947 183.583L501.507 181.761ZM494.335 149.52C494.335 137.097 496.818 126.305 501.717 117.082L498.185 115.206C492.929 125.098 490.335 136.556 490.335 149.52H494.335ZM501.717 117.082C506.628 107.838 513.431 100.646 522.142 95.4627L520.096 92.0253C510.737 97.5942 503.429 105.335 498.185 115.206L501.717 117.082ZM522.142 95.4627C530.829 90.2937 540.919 87.68 552.479 87.68V83.68C540.295 83.68 529.479 86.4423 520.096 92.0253L522.142 95.4627ZM552.479 87.68C564.342 87.68 574.576 90.3333 583.254 95.5685L585.32 92.1435C575.928 86.4774 564.957 83.68 552.479 83.68V87.68ZM583.254 95.5685C591.964 100.823 598.73 108.087 603.568 117.402L607.118 115.558C601.951 105.609 594.68 97.7901 585.32 92.1435L583.254 95.5685ZM603.571 117.407C608.402 126.637 610.847 137.323 610.847 149.52H614.847C614.847 136.778 612.289 125.438 607.115 115.553L603.571 117.407ZM610.847 149.52C610.847 161.789 608.366 172.548 603.462 181.851L607 183.717C612.251 173.756 614.847 162.339 614.847 149.52H610.847ZM603.459 181.857C598.622 191.097 591.856 198.326 583.142 203.584L585.208 207.008C594.564 201.364 601.834 193.586 607.003 183.711L603.459 181.857ZM583.152 203.577C574.471 208.743 564.27 211.36 552.479 211.36V215.36C564.88 215.36 575.81 212.601 585.198 207.015L583.152 203.577ZM552.479 190.048C563.717 190.048 572.378 186.271 578.063 178.474L574.831 176.118C570.062 182.657 562.745 186.048 552.479 186.048V190.048ZM578.063 178.474C583.601 170.879 586.287 161.174 586.287 149.52H582.287C582.287 160.565 579.746 169.377 574.831 176.118L578.063 178.474ZM586.287 149.52C586.287 137.508 583.57 127.701 577.925 120.306L574.745 122.734C579.702 129.227 582.287 138.087 582.287 149.52H586.287ZM577.931 120.315C572.172 112.69 563.564 108.992 552.479 108.992V112.992C562.599 112.992 569.895 116.312 574.739 122.725L577.931 120.315ZM552.479 108.992C544.935 108.992 538.532 110.705 533.414 114.28L535.704 117.56C539.994 114.564 545.538 112.992 552.479 112.992V108.992ZM533.419 114.277C528.425 117.74 524.756 122.598 522.388 128.754L526.122 130.19C528.234 124.698 531.434 120.521 535.699 117.563L533.419 114.277ZM522.391 128.746C520.043 134.774 518.895 141.712 518.895 149.52H522.895C522.895 142.096 523.987 135.669 526.119 130.198L522.391 128.746ZM518.895 149.52C518.895 161.534 521.612 171.372 527.251 178.837L530.443 176.427C525.479 169.855 522.895 160.952 522.895 149.52H518.895ZM527.266 178.856C533.092 186.382 541.608 190.048 552.479 190.048V186.048C542.593 186.048 535.354 182.77 530.428 176.408L527.266 178.856ZM647.94 182.112L646.093 182.879L646.095 182.884L647.94 182.112ZM647.94 116.816L649.785 117.588L649.785 117.588L647.94 116.816ZM665.636 94.08L666.795 95.7096L666.798 95.7075L665.636 94.08ZM724.324 94.08L723.211 95.7418L723.219 95.7475L723.228 95.7531L724.324 94.08ZM743.924 116.816L742.121 117.682L742.124 117.688L743.924 116.816ZM724.772 204.96L723.652 203.303L723.652 203.303L724.772 204.96ZM637.3 210H635.3V212H637.3V210ZM637.3 48.72V46.72H635.3V48.72H637.3ZM664.516 48.72H666.516V46.72H664.516V48.72ZM664.516 125.104V127.104H666.516V125.104H664.516ZM661.156 125.104V123.104H659.156V125.104H661.156ZM661.156 210V212H663.156V210H661.156ZM708.868 183.904L707.647 182.32L707.647 182.32L708.868 183.904ZM718.948 169.68L717.072 168.985L717.067 168.998L718.948 169.68ZM718.948 129.584L717.072 130.279L717.075 130.286L718.948 129.584ZM708.532 115.248L707.32 116.839L707.328 116.845L707.336 116.851L708.532 115.248ZM673.812 114.912L675.021 116.505L675.029 116.499L675.038 116.492L673.812 114.912ZM664.18 128.8L662.292 128.139L662.29 128.146L662.287 128.153L664.18 128.8ZM664.18 170.24L662.285 170.88L662.288 170.89L662.292 170.901L664.18 170.24ZM673.924 184.24L672.711 185.83L672.726 185.842L672.741 185.853L673.924 184.24ZM695.652 211.36C684.178 211.36 674.708 208.641 667.12 203.322L664.824 206.598C673.215 212.479 683.531 215.36 695.652 215.36V211.36ZM667.12 203.322C659.462 197.954 653.681 190.649 649.785 181.34L646.095 182.884C650.262 192.839 656.503 200.766 664.824 206.598L667.12 203.322ZM649.787 181.345C645.869 171.914 643.892 161.316 643.892 149.52H639.892C639.892 161.767 641.946 172.897 646.093 182.879L649.787 181.345ZM643.892 149.52C643.892 137.571 645.871 126.939 649.785 117.588L646.095 116.044C641.945 125.957 639.892 137.128 639.892 149.52H643.892ZM649.785 117.588C653.687 108.266 659.363 100.998 666.795 95.7096L664.476 92.4504C656.378 98.2125 650.257 106.102 646.095 116.044L649.785 117.588ZM666.798 95.7075C674.237 90.3937 683.479 87.68 694.644 87.68V83.68C682.811 83.68 672.714 86.5663 664.473 92.4525L666.798 95.7075ZM694.644 87.68C705.727 87.68 715.221 90.3912 723.211 95.7418L725.437 92.4182C716.702 86.5688 706.409 83.68 694.644 83.68V87.68ZM723.228 95.7531C731.342 101.067 737.64 108.358 742.121 117.682L745.726 115.95C740.949 106.01 734.18 98.1438 725.419 92.4068L723.228 95.7531ZM742.124 117.688C746.603 126.935 748.868 137.53 748.868 149.52H752.868C752.868 137.019 750.503 125.812 745.724 115.944L742.124 117.688ZM748.868 149.52C748.868 161.36 746.64 171.926 742.228 181.257L745.844 182.967C750.541 173.034 752.868 161.872 752.868 149.52H748.868ZM742.228 181.257C737.816 190.587 731.623 197.917 723.652 203.303L725.891 206.617C734.496 200.803 741.146 192.901 745.844 182.967L742.228 181.257ZM723.652 203.303C715.731 208.655 706.425 211.36 695.652 211.36V215.36C707.13 215.36 717.236 212.465 725.891 206.617L723.652 203.303ZM639.3 210V48.72H635.3V210H639.3ZM637.3 50.72H664.516V46.72H637.3V50.72ZM662.516 48.72V125.104H666.516V48.72H662.516ZM664.516 123.104H661.156V127.104H664.516V123.104ZM659.156 125.104V210H663.156V125.104H659.156ZM661.156 208H637.3V212H661.156V208ZM691.508 191.168C698.868 191.168 705.112 189.322 710.088 185.488L707.647 182.32C703.514 185.504 698.185 187.168 691.508 187.168V191.168ZM710.088 185.488C714.975 181.723 718.547 176.654 720.828 170.362L717.067 168.998C715.018 174.653 711.869 179.066 707.647 182.32L710.088 185.488ZM720.823 170.375C723.157 164.074 724.308 157.115 724.308 149.52H720.308C720.308 156.709 719.219 163.19 717.072 168.985L720.823 170.375ZM724.308 149.52C724.308 141.998 723.156 135.11 720.82 128.882L717.075 130.286C719.219 136.005 720.308 142.408 720.308 149.52H724.308ZM720.823 128.889C718.463 122.517 714.771 117.408 709.728 113.645L707.336 116.851C711.7 120.107 714.953 124.555 717.072 130.279L720.823 128.889ZM709.744 113.657C704.619 109.753 698.192 107.872 690.612 107.872V111.872C697.517 111.872 703.036 113.575 707.32 116.839L709.744 113.657ZM690.612 107.872C683.413 107.872 677.348 109.637 672.586 113.332L675.038 116.492C678.937 113.467 684.072 111.872 690.612 111.872V107.872ZM672.603 113.319C667.911 116.878 664.491 121.857 662.292 128.139L666.067 129.461C668.05 123.796 671.052 119.516 675.021 116.505L672.603 113.319ZM662.287 128.153C660.184 134.308 659.156 141.442 659.156 149.52H663.156C663.156 141.769 664.144 135.09 666.072 129.447L662.287 128.153ZM659.156 149.52C659.156 157.527 660.185 164.657 662.285 170.88L666.075 169.6C664.143 163.876 663.156 157.193 663.156 149.52H659.156ZM662.292 170.901C664.493 177.189 667.952 182.201 672.711 185.83L675.137 182.65C671.085 179.559 668.048 175.238 666.067 169.579L662.292 170.901ZM672.741 185.853C677.655 189.457 683.969 191.168 691.508 191.168V187.168C684.562 187.168 679.152 185.594 675.106 182.627L672.741 185.853Z" fill="white" mask="url(#path-1-outside-1_6_7)"/>
<mask id="path-3-outside-2_6_7" maskUnits="userSpaceOnUse" x="762" y="46" width="656" height="170" fill="black">
<rect fill="white" x="762" y="46" width="656" height="170"/>
<path d="M764.68 210V48.72H788.984L844.76 162.96L900.536 48.72H924.84V210H899.64V106.624L850.136 210H839.384L789.992 106.624V210H764.68ZM990.129 213.36C981.393 213.36 974.001 211.717 967.953 208.432C961.905 205.072 957.313 200.629 954.177 195.104C951.116 189.579 949.585 183.493 949.585 176.848C949.585 171.024 950.556 165.797 952.497 161.168C954.438 156.464 957.425 152.432 961.457 149.072C965.489 145.637 970.716 142.837 977.137 140.672C981.99 139.104 987.665 137.685 994.161 136.416C1000.73 135.147 1007.83 133.989 1015.44 132.944C1023.13 131.824 1031.16 130.629 1039.52 129.36L1029.89 134.848C1029.96 126.485 1028.1 120.325 1024.29 116.368C1020.48 112.411 1014.06 110.432 1005.03 110.432C999.574 110.432 994.31 111.701 989.233 114.24C984.156 116.779 980.609 121.147 978.593 127.344L953.953 119.616C956.94 109.387 962.614 101.173 970.977 94.976C979.414 88.7787 990.764 85.68 1005.03 85.68C1015.78 85.68 1025.22 87.4347 1033.36 90.944C1041.57 94.4533 1047.66 100.203 1051.62 108.192C1053.78 112.448 1055.09 116.816 1055.54 121.296C1055.99 125.701 1056.21 130.517 1056.21 135.744V210H1032.58V183.792L1036.5 188.048C1031.05 196.784 1024.66 203.205 1017.35 207.312C1010.1 211.344 1001.03 213.36 990.129 213.36ZM995.505 191.856C1001.63 191.856 1006.85 190.773 1011.19 188.608C1015.52 186.443 1018.95 183.792 1021.49 180.656C1024.1 177.52 1025.86 174.571 1026.75 171.808C1028.17 168.373 1028.96 164.453 1029.11 160.048C1029.33 155.568 1029.44 151.947 1029.44 149.184L1037.73 151.648C1029.59 152.917 1022.61 154.037 1016.79 155.008C1010.96 155.979 1005.96 156.912 1001.78 157.808C997.596 158.629 993.9 159.563 990.689 160.608C987.553 161.728 984.902 163.035 982.737 164.528C980.572 166.021 978.892 167.739 977.697 169.68C976.577 171.621 976.017 173.899 976.017 176.512C976.017 179.499 976.764 182.149 978.257 184.464C979.75 186.704 981.916 188.496 984.753 189.84C987.665 191.184 991.249 191.856 995.505 191.856ZM1156.26 210C1148.27 211.493 1140.43 212.128 1132.74 211.904C1125.13 211.755 1118.3 210.373 1112.25 207.76C1106.2 205.072 1101.61 200.853 1098.47 195.104C1095.71 189.877 1094.25 184.539 1094.1 179.088C1093.95 173.637 1093.88 167.477 1093.88 160.608V55.44H1120.76V159.04C1120.76 163.893 1120.8 168.149 1120.87 171.808C1121.02 175.467 1121.8 178.453 1123.22 180.768C1125.91 185.248 1130.2 187.749 1136.1 188.272C1142 188.795 1148.72 188.496 1156.26 187.376V210ZM1071.93 110.208V89.04H1156.26V110.208H1071.93ZM1228.68 213.36C1216.21 213.36 1205.57 210.597 1196.76 205.072C1187.95 199.472 1181.19 191.856 1176.48 182.224C1171.86 172.592 1169.5 161.691 1169.43 149.52C1169.5 137.125 1171.93 126.149 1176.71 116.592C1181.56 106.96 1188.43 99.4187 1197.32 93.968C1206.2 88.4427 1216.77 85.68 1229.01 85.68C1242.75 85.68 1254.36 89.152 1263.84 96.096C1273.4 102.965 1279.64 112.373 1282.55 124.32L1255.67 131.6C1253.58 125.104 1250.11 120.064 1245.25 116.48C1240.4 112.821 1234.87 110.992 1228.68 110.992C1221.66 110.992 1215.87 112.672 1211.32 116.032C1206.76 119.317 1203.4 123.872 1201.24 129.696C1199.07 135.52 1197.99 142.128 1197.99 149.52C1197.99 161.019 1200.56 170.315 1205.72 177.408C1210.87 184.501 1218.52 188.048 1228.68 188.048C1235.84 188.048 1241.48 186.405 1245.59 183.12C1249.77 179.835 1252.91 175.093 1255 168.896L1282.55 175.056C1278.82 187.376 1272.28 196.859 1262.95 203.504C1253.62 210.075 1242.19 213.36 1228.68 213.36ZM1388.66 210V151.76C1388.66 147.952 1388.4 143.733 1387.87 139.104C1387.35 134.475 1386.12 130.032 1384.18 125.776C1382.31 121.445 1379.47 117.899 1375.66 115.136C1371.93 112.373 1366.85 110.992 1360.43 110.992C1357 110.992 1353.6 111.552 1350.24 112.672C1346.88 113.792 1343.82 115.733 1341.06 118.496C1338.37 121.184 1336.2 124.917 1334.56 129.696C1332.92 134.4 1332.1 140.448 1332.1 147.84L1316.08 141.008C1316.08 130.704 1318.06 121.371 1322.02 113.008C1326.05 104.645 1331.95 98 1339.71 93.072C1347.48 88.0693 1357.04 85.568 1368.38 85.568C1377.34 85.568 1384.74 87.0613 1390.56 90.048C1396.38 93.0347 1401.01 96.8427 1404.45 101.472C1407.88 106.101 1410.42 111.029 1412.06 116.256C1413.71 121.483 1414.75 126.448 1415.2 131.152C1415.72 135.781 1415.98 139.552 1415.98 142.464V210H1388.66ZM1304.77 210V48.72H1328.85V133.616H1332.1V210H1304.77Z"/>
</mask>
<path d="M764.68 210H762.68V212H764.68V210ZM764.68 48.72V46.72H762.68V48.72H764.68ZM788.984 48.72L790.781 47.8425L790.233 46.72H788.984V48.72ZM844.76 162.96L842.963 163.837L844.76 167.519L846.557 163.837L844.76 162.96ZM900.536 48.72V46.72H899.287L898.739 47.8425L900.536 48.72ZM924.84 48.72H926.84V46.72H924.84V48.72ZM924.84 210V212H926.84V210H924.84ZM899.64 210H897.64V212H899.64V210ZM899.64 106.624H901.64L897.836 105.76L899.64 106.624ZM850.136 210V212H851.396L851.94 210.864L850.136 210ZM839.384 210L837.579 210.862L838.123 212H839.384V210ZM789.992 106.624L791.797 105.762L787.992 106.624H789.992ZM789.992 210V212H791.992V210H789.992ZM766.68 210V48.72H762.68V210H766.68ZM764.68 50.72H788.984V46.72H764.68V50.72ZM787.187 49.5975L842.963 163.837L846.557 162.083L790.781 47.8425L787.187 49.5975ZM846.557 163.837L902.333 49.5975L898.739 47.8425L842.963 162.083L846.557 163.837ZM900.536 50.72H924.84V46.72H900.536V50.72ZM922.84 48.72V210H926.84V48.72H922.84ZM924.84 208H899.64V212H924.84V208ZM901.64 210V106.624H897.64V210H901.64ZM897.836 105.76L848.332 209.136L851.94 210.864L901.444 107.488L897.836 105.76ZM850.136 208H839.384V212H850.136V208ZM841.189 209.138L791.797 105.762L788.187 107.486L837.579 210.862L841.189 209.138ZM787.992 106.624V210H791.992V106.624H787.992ZM789.992 208H764.68V212H789.992V208ZM967.953 208.432L966.982 210.18L966.99 210.185L966.998 210.189L967.953 208.432ZM954.177 195.104L952.428 196.073L952.433 196.082L952.438 196.091L954.177 195.104ZM952.497 161.168L954.341 161.941L954.346 161.931L952.497 161.168ZM961.457 149.072L962.737 150.608L962.746 150.602L962.754 150.594L961.457 149.072ZM977.137 140.672L976.522 138.769L976.51 138.773L976.498 138.777L977.137 140.672ZM994.161 136.416L993.782 134.452L993.777 134.453L994.161 136.416ZM1015.44 132.944L1015.71 134.925L1015.72 134.924L1015.73 134.923L1015.44 132.944ZM1039.52 129.36L1040.51 131.098L1039.22 127.383L1039.52 129.36ZM1029.89 134.848L1027.89 134.83L1027.86 138.307L1030.88 136.586L1029.89 134.848ZM1024.29 116.368L1022.85 117.755L1022.85 117.755L1024.29 116.368ZM989.233 114.24L990.127 116.029L990.127 116.029L989.233 114.24ZM978.593 127.344L977.994 129.252L979.883 129.845L980.495 127.963L978.593 127.344ZM953.953 119.616L952.033 119.055L951.484 120.938L953.354 121.524L953.953 119.616ZM970.977 94.976L969.793 93.3641L969.786 93.3691L970.977 94.976ZM1033.36 90.944L1032.57 92.7805L1032.58 92.7831L1033.36 90.944ZM1051.62 108.192L1049.82 109.08L1049.83 109.089L1049.83 109.099L1051.62 108.192ZM1055.54 121.296L1053.55 121.495L1053.55 121.498L1055.54 121.296ZM1056.21 210V212H1058.21V210H1056.21ZM1032.58 210H1030.58V212H1032.58V210ZM1032.58 183.792L1034.05 182.437L1030.58 178.668V183.792H1032.58ZM1036.5 188.048L1038.19 189.107L1039 187.814L1037.97 186.693L1036.5 188.048ZM1017.35 207.312L1018.32 209.059L1018.32 209.056L1017.35 207.312ZM1011.19 188.608L1012.08 190.397L1012.08 190.397L1011.19 188.608ZM1021.49 180.656L1019.95 179.376L1019.94 179.387L1019.93 179.398L1021.49 180.656ZM1026.75 171.808L1024.9 171.044L1024.87 171.117L1024.85 171.191L1026.75 171.808ZM1029.11 160.048L1027.11 159.948L1027.11 159.964L1027.11 159.98L1029.11 160.048ZM1029.44 149.184L1030.01 147.267L1027.44 146.503V149.184H1029.44ZM1037.73 151.648L1038.04 153.624L1038.3 149.731L1037.73 151.648ZM1016.79 155.008L1016.46 153.035L1016.46 153.035L1016.79 155.008ZM1001.78 157.808L1002.16 159.77L1002.18 159.767L1002.2 159.764L1001.78 157.808ZM990.689 160.608L990.07 158.706L990.043 158.715L990.016 158.725L990.689 160.608ZM977.697 169.68L975.994 168.632L975.979 168.656L975.965 168.681L977.697 169.68ZM978.257 184.464L976.576 185.548L976.585 185.561L976.593 185.573L978.257 184.464ZM984.753 189.84L983.897 191.647L983.906 191.652L983.915 191.656L984.753 189.84ZM990.129 211.36C981.639 211.36 974.594 209.763 968.908 206.675L966.998 210.189C973.408 213.671 981.147 215.36 990.129 215.36V211.36ZM968.924 206.684C963.168 203.486 958.855 199.295 955.916 194.117L952.438 196.091C955.771 201.964 960.642 206.658 966.982 210.18L968.924 206.684ZM955.926 194.135C953.038 188.922 951.585 183.173 951.585 176.848H947.585C947.585 183.814 949.193 190.236 952.428 196.073L955.926 194.135ZM951.585 176.848C951.585 171.248 952.518 166.29 954.341 161.941L950.653 160.395C948.593 165.305 947.585 170.8 947.585 176.848H951.585ZM954.346 161.931C956.159 157.537 958.947 153.767 962.737 150.608L960.177 147.536C955.903 151.097 952.717 155.391 950.648 160.405L954.346 161.931ZM962.754 150.594C966.547 147.364 971.531 144.673 977.776 142.567L976.498 138.777C969.9 141.002 964.431 143.911 960.16 147.55L962.754 150.594ZM977.752 142.575C982.511 141.038 988.105 139.637 994.545 138.379L993.777 134.453C987.225 135.734 981.47 137.17 976.522 138.769L977.752 142.575ZM994.54 138.38C1001.07 137.118 1008.13 135.967 1015.71 134.925L1015.17 130.963C1007.52 132.012 1000.39 133.175 993.782 134.452L994.54 138.38ZM1015.73 134.923C1023.42 133.802 1031.45 132.607 1039.82 131.337L1039.22 127.383C1030.86 128.651 1022.84 129.846 1015.15 130.965L1015.73 134.923ZM1038.53 127.622L1028.9 133.11L1030.88 136.586L1040.51 131.098L1038.53 127.622ZM1031.89 134.866C1031.97 126.248 1030.05 119.472 1025.73 114.981L1022.85 117.755C1026.14 121.178 1027.96 126.723 1027.89 134.83L1031.89 134.866ZM1025.73 114.981C1021.36 110.443 1014.27 108.432 1005.03 108.432V112.432C1013.85 112.432 1019.6 114.379 1022.85 117.755L1025.73 114.981ZM1005.03 108.432C999.251 108.432 993.682 109.78 988.339 112.451L990.127 116.029C994.939 113.623 999.898 112.432 1005.03 112.432V108.432ZM988.339 112.451C982.71 115.265 978.846 120.101 976.691 126.725L980.495 127.963C982.372 122.193 985.601 118.292 990.127 116.029L988.339 112.451ZM979.192 125.436L954.552 117.708L953.354 121.524L977.994 129.252L979.192 125.436ZM955.873 120.177C958.74 110.355 964.165 102.514 972.168 96.5829L969.786 93.3691C961.064 99.8329 955.139 108.418 952.033 119.055L955.873 120.177ZM972.161 96.5879C980.15 90.7197 991.038 87.68 1005.03 87.68V83.68C990.489 83.68 978.678 86.8376 969.793 93.3641L972.161 96.5879ZM1005.03 87.68C1015.56 87.68 1024.73 89.3994 1032.57 92.7805L1034.15 89.1074C1025.72 85.4699 1015.99 83.68 1005.03 83.68V87.68ZM1032.58 92.7831C1040.35 96.1057 1046.08 101.518 1049.82 109.08L1053.41 107.304C1049.24 98.8872 1042.8 92.801 1034.15 89.1048L1032.58 92.7831ZM1049.83 109.099C1051.89 113.147 1053.13 117.276 1053.55 121.495L1057.53 121.097C1057.05 116.356 1055.67 111.749 1053.4 107.285L1049.83 109.099ZM1053.55 121.498C1053.99 125.826 1054.21 130.573 1054.21 135.744H1058.21C1058.21 130.461 1057.98 125.577 1057.53 121.094L1053.55 121.498ZM1054.21 135.744V210H1058.21V135.744H1054.21ZM1056.21 208H1032.58V212H1056.21V208ZM1034.58 210V183.792H1030.58V210H1034.58ZM1031.11 185.147L1035.03 189.403L1037.97 186.693L1034.05 182.437L1031.11 185.147ZM1034.8 186.989C1029.49 195.504 1023.33 201.659 1016.37 205.568L1018.32 209.056C1025.99 204.752 1032.61 198.064 1038.19 189.107L1034.8 186.989ZM1016.37 205.565C1009.51 209.387 1000.79 211.36 990.129 211.36V215.36C1001.27 215.36 1010.7 213.301 1018.32 209.059L1016.37 205.565ZM995.505 193.856C1001.86 193.856 1007.41 192.733 1012.08 190.397L1010.29 186.819C1006.3 188.814 1001.4 189.856 995.505 189.856V193.856ZM1012.08 190.397C1016.62 188.129 1020.29 185.312 1023.04 181.914L1019.93 179.398C1017.61 182.272 1014.42 184.756 1010.29 186.819L1012.08 190.397ZM1023.03 181.936C1025.74 178.678 1027.66 175.507 1028.66 172.425L1024.85 171.191C1024.06 173.634 1022.46 176.362 1019.95 179.376L1023.03 181.936ZM1028.6 172.572C1030.13 168.879 1030.95 164.717 1031.1 160.116L1027.11 159.98C1026.96 164.19 1026.22 167.868 1024.9 171.044L1028.6 172.572ZM1031.1 160.148C1031.33 155.652 1031.44 151.994 1031.44 149.184H1027.44C1027.44 151.899 1027.33 155.484 1027.11 159.948L1031.1 160.148ZM1028.87 151.101L1037.16 153.565L1038.3 149.731L1030.01 147.267L1028.87 151.101ZM1037.42 149.672C1029.28 150.942 1022.29 152.063 1016.46 153.035L1017.11 156.981C1022.93 156.012 1029.9 154.893 1038.04 153.624L1037.42 149.672ZM1016.46 153.035C1010.61 154.009 1005.58 154.948 1001.36 155.852L1002.2 159.764C1006.34 158.876 1011.31 157.948 1017.11 156.981L1016.46 153.035ZM1001.39 155.846C997.151 156.679 993.374 157.631 990.07 158.706L991.308 162.51C994.425 161.495 998.041 160.58 1002.16 159.77L1001.39 155.846ZM990.016 158.725C986.758 159.888 983.942 161.267 981.602 162.882L983.872 166.174C985.862 164.802 988.348 163.568 991.362 162.491L990.016 158.725ZM981.602 162.882C979.242 164.509 977.355 166.42 975.994 168.632L979.4 170.728C980.429 169.057 981.901 167.534 983.872 166.174L981.602 162.882ZM975.965 168.681C974.642 170.973 974.017 173.607 974.017 176.512H978.017C978.017 174.191 978.512 172.27 979.429 170.679L975.965 168.681ZM974.017 176.512C974.017 179.85 974.857 182.883 976.576 185.548L979.938 183.38C978.67 181.416 978.017 179.148 978.017 176.512H974.017ZM976.593 185.573C978.319 188.162 980.787 190.174 983.897 191.647L985.609 188.033C983.044 186.818 981.182 185.246 979.921 183.355L976.593 185.573ZM983.915 191.656C987.161 193.154 991.05 193.856 995.505 193.856V189.856C991.448 189.856 988.169 189.214 985.591 188.024L983.915 191.656ZM1156.26 210L1156.63 211.966L1158.26 211.661V210H1156.26ZM1132.74 211.904L1132.8 209.905L1132.79 209.905L1132.78 209.904L1132.74 211.904ZM1112.25 207.76L1111.44 209.588L1111.44 209.592L1111.45 209.596L1112.25 207.76ZM1098.47 195.104L1096.7 196.039L1096.71 196.05L1096.72 196.062L1098.47 195.104ZM1094.1 179.088L1096.1 179.033L1094.1 179.088ZM1093.88 55.44V53.44H1091.88V55.44H1093.88ZM1120.76 55.44H1122.76V53.44H1120.76V55.44ZM1120.87 171.808L1118.87 171.849L1118.87 171.869L1118.87 171.89L1120.87 171.808ZM1123.22 180.768L1124.94 179.739L1124.93 179.731L1124.93 179.723L1123.22 180.768ZM1136.1 188.272L1136.28 186.28L1136.28 186.28L1136.1 188.272ZM1156.26 187.376H1158.26V185.057L1155.97 185.398L1156.26 187.376ZM1071.93 110.208H1069.93V112.208H1071.93V110.208ZM1071.93 89.04V87.04H1069.93V89.04H1071.93ZM1156.26 89.04H1158.26V87.04H1156.26V89.04ZM1156.26 110.208V112.208H1158.26V110.208H1156.26ZM1155.9 208.034C1148.04 209.503 1140.34 210.124 1132.8 209.905L1132.69 213.903C1140.53 214.132 1148.51 213.484 1156.63 211.966L1155.9 208.034ZM1132.78 209.904C1125.39 209.759 1118.82 208.42 1113.04 205.924L1111.45 209.596C1117.77 212.327 1124.87 213.75 1132.7 213.904L1132.78 209.904ZM1113.06 205.932C1107.41 203.421 1103.15 199.505 1100.23 194.146L1096.72 196.062C1100.06 202.201 1104.99 206.723 1111.44 209.588L1113.06 205.932ZM1100.24 194.169C1097.61 189.191 1096.24 184.151 1096.1 179.033L1092.1 179.143C1092.26 184.926 1093.81 190.564 1096.7 196.039L1100.24 194.169ZM1096.1 179.033C1095.95 173.605 1095.88 167.464 1095.88 160.608H1091.88C1091.88 167.491 1091.95 173.67 1092.1 179.143L1096.1 179.033ZM1095.88 160.608V55.44H1091.88V160.608H1095.88ZM1093.88 57.44H1120.76V53.44H1093.88V57.44ZM1118.76 55.44V159.04H1122.76V55.44H1118.76ZM1118.76 159.04C1118.76 163.903 1118.8 168.173 1118.87 171.849L1122.87 171.767C1122.8 168.126 1122.76 163.884 1122.76 159.04H1118.76ZM1118.87 171.89C1119.03 175.775 1119.87 179.124 1121.52 181.813L1124.93 179.723C1123.74 177.783 1123.01 175.158 1122.87 171.726L1118.87 171.89ZM1121.51 181.797C1124.57 186.905 1129.49 189.694 1135.93 190.264L1136.28 186.28C1130.92 185.805 1127.25 183.591 1124.94 179.739L1121.51 181.797ZM1135.93 190.264C1142.02 190.804 1148.9 190.491 1156.56 189.354L1155.97 185.398C1148.54 186.501 1141.98 186.785 1136.28 186.28L1135.93 190.264ZM1154.26 187.376V210H1158.26V187.376H1154.26ZM1073.93 110.208V89.04H1069.93V110.208H1073.93ZM1071.93 91.04H1156.26V87.04H1071.93V91.04ZM1154.26 89.04V110.208H1158.26V89.04H1154.26ZM1156.26 108.208H1071.93V112.208H1156.26V108.208ZM1196.76 205.072L1195.68 206.76L1195.69 206.766L1196.76 205.072ZM1176.48 182.224L1174.68 183.09L1174.69 183.102L1176.48 182.224ZM1169.43 149.52L1167.43 149.508L1167.43 149.52L1167.43 149.532L1169.43 149.52ZM1176.71 116.592L1174.92 115.692L1174.92 115.698L1176.71 116.592ZM1197.32 93.968L1198.36 95.6728L1198.37 95.6664L1197.32 93.968ZM1263.84 96.096L1262.66 97.7096L1262.67 97.7148L1262.68 97.72L1263.84 96.096ZM1282.55 124.32L1283.07 126.25L1284.95 125.741L1284.49 123.846L1282.55 124.32ZM1255.67 131.6L1253.76 132.213L1254.35 134.029L1256.19 133.53L1255.67 131.6ZM1245.25 116.48L1244.05 118.077L1244.06 118.083L1244.06 118.089L1245.25 116.48ZM1211.32 116.032L1212.49 117.654L1212.5 117.648L1212.5 117.641L1211.32 116.032ZM1201.24 129.696L1203.11 130.393L1203.11 130.393L1201.24 129.696ZM1245.59 183.12L1244.35 181.547L1244.35 181.553L1244.34 181.558L1245.59 183.12ZM1255 168.896L1255.43 166.944L1253.68 166.552L1253.1 168.257L1255 168.896ZM1282.55 175.056L1284.46 175.636L1285.09 173.574L1282.99 173.104L1282.55 175.056ZM1262.95 203.504L1264.1 205.139L1264.11 205.133L1262.95 203.504ZM1228.68 211.36C1216.51 211.36 1206.25 208.667 1197.82 203.378L1195.69 206.766C1204.88 212.528 1215.91 215.36 1228.68 215.36V211.36ZM1197.83 203.384C1189.34 197.988 1182.83 190.656 1178.28 181.346L1174.69 183.102C1179.55 193.056 1186.55 200.956 1195.68 206.76L1197.83 203.384ZM1178.29 181.358C1173.8 172.027 1171.5 161.424 1171.43 149.508L1167.43 149.532C1167.51 161.958 1169.91 173.157 1174.68 183.09L1178.29 181.358ZM1171.43 149.532C1171.5 137.395 1173.88 126.729 1178.5 117.486L1174.92 115.698C1169.98 125.57 1167.51 136.856 1167.43 149.508L1171.43 149.532ZM1178.49 117.492C1183.19 108.18 1189.81 100.922 1198.36 95.6728L1196.27 92.2632C1187.06 97.9151 1179.94 105.74 1174.92 115.692L1178.49 117.492ZM1198.37 95.6664C1206.89 90.3697 1217.08 87.68 1229.01 87.68V83.68C1216.46 83.68 1205.51 86.5156 1196.26 92.2696L1198.37 95.6664ZM1229.01 87.68C1242.4 87.68 1253.58 91.0572 1262.66 97.7096L1265.03 94.4824C1255.15 87.2468 1243.1 83.68 1229.01 83.68V87.68ZM1262.68 97.72C1271.83 104.297 1277.8 113.288 1280.61 124.794L1284.49 123.846C1281.47 111.459 1274.98 101.633 1265.01 94.472L1262.68 97.72ZM1282.03 122.39L1255.15 129.67L1256.19 133.53L1283.07 126.25L1282.03 122.39ZM1257.57 130.987C1255.37 124.147 1251.67 118.736 1246.44 114.871L1244.06 118.089C1248.54 121.392 1251.79 126.061 1253.76 132.213L1257.57 130.987ZM1246.46 114.883C1241.25 110.957 1235.3 108.992 1228.68 108.992V112.992C1234.45 112.992 1239.55 114.685 1244.05 118.077L1246.46 114.883ZM1228.68 108.992C1221.33 108.992 1215.1 110.753 1210.13 114.423L1212.5 117.641C1216.64 114.591 1221.98 112.992 1228.68 112.992V108.992ZM1210.15 114.41C1205.24 117.951 1201.65 122.845 1199.36 128.999L1203.11 130.393C1205.15 124.899 1208.29 120.683 1212.49 117.654L1210.15 114.41ZM1199.36 128.999C1197.1 135.084 1195.99 141.934 1195.99 149.52H1199.99C1199.99 142.322 1201.04 135.956 1203.11 130.393L1199.36 128.999ZM1195.99 149.52C1195.99 161.31 1198.63 171.056 1204.1 178.583L1207.33 176.233C1202.5 169.574 1199.99 160.727 1199.99 149.52H1195.99ZM1204.1 178.583C1209.69 186.282 1218 190.048 1228.68 190.048V186.048C1219.05 186.048 1212.05 182.721 1207.33 176.233L1204.1 178.583ZM1228.68 190.048C1236.14 190.048 1242.27 188.338 1246.84 184.682L1244.34 181.558C1240.7 184.472 1235.55 186.048 1228.68 186.048V190.048ZM1246.82 184.693C1251.38 181.117 1254.71 176.016 1256.89 169.535L1253.1 168.257C1251.11 174.171 1248.16 178.552 1244.35 181.547L1246.82 184.693ZM1254.56 170.848L1282.11 177.008L1282.99 173.104L1255.43 166.944L1254.56 170.848ZM1280.63 174.476C1277.01 186.428 1270.72 195.518 1261.79 201.875L1264.11 205.133C1273.85 198.2 1280.62 188.324 1284.46 175.636L1280.63 174.476ZM1261.8 201.869C1252.86 208.161 1241.86 211.36 1228.68 211.36V215.36C1242.53 215.36 1254.37 211.988 1264.1 205.139L1261.8 201.869ZM1388.66 210H1386.66V212H1388.66V210ZM1387.87 139.104L1389.86 138.88L1389.86 138.88L1387.87 139.104ZM1384.18 125.776L1382.34 126.568L1382.35 126.587L1382.36 126.606L1384.18 125.776ZM1375.66 115.136L1374.47 116.744L1374.48 116.749L1374.49 116.755L1375.66 115.136ZM1350.24 112.672L1350.87 114.569L1350.87 114.569L1350.24 112.672ZM1341.06 118.496L1339.64 117.082L1339.64 117.082L1341.06 118.496ZM1334.56 129.696L1336.45 130.355L1336.45 130.346L1334.56 129.696ZM1332.1 147.84L1331.31 149.68L1334.1 150.868V147.84H1332.1ZM1316.08 141.008H1314.08V142.329L1315.3 142.848L1316.08 141.008ZM1322.02 113.008L1320.21 112.139L1320.21 112.146L1320.21 112.153L1322.02 113.008ZM1339.71 93.072L1340.78 94.7607L1340.8 94.7533L1339.71 93.072ZM1390.56 90.048L1391.47 88.2684L1391.47 88.2684L1390.56 90.048ZM1404.45 101.472L1402.84 102.664L1402.84 102.664L1404.45 101.472ZM1412.06 116.256L1413.97 115.656L1413.97 115.656L1412.06 116.256ZM1415.2 131.152L1413.21 131.342L1413.21 131.359L1413.21 131.376L1415.2 131.152ZM1415.98 210V212H1417.98V210H1415.98ZM1304.77 210H1302.77V212H1304.77V210ZM1304.77 48.72V46.72H1302.77V48.72H1304.77ZM1328.85 48.72H1330.85V46.72H1328.85V48.72ZM1328.85 133.616H1326.85V135.616H1328.85V133.616ZM1332.1 133.616H1334.1V131.616H1332.1V133.616ZM1332.1 210V212H1334.1V210H1332.1ZM1390.66 210V151.76H1386.66V210H1390.66ZM1390.66 151.76C1390.66 147.863 1390.39 143.568 1389.86 138.88L1385.89 139.328C1386.4 143.899 1386.66 148.041 1386.66 151.76H1390.66ZM1389.86 138.88C1389.31 134.04 1388.02 129.393 1386 124.946L1382.36 126.606C1384.21 130.671 1385.39 134.909 1385.89 139.328L1389.86 138.88ZM1386.01 124.984C1384 120.324 1380.94 116.492 1376.84 113.517L1374.49 116.755C1378.01 119.306 1380.62 122.566 1382.34 126.568L1386.01 124.984ZM1376.85 113.528C1372.67 110.43 1367.12 108.992 1360.43 108.992V112.992C1366.59 112.992 1371.2 114.317 1374.47 116.744L1376.85 113.528ZM1360.43 108.992C1356.78 108.992 1353.17 109.589 1349.61 110.775L1350.87 114.569C1354.04 113.515 1357.22 112.992 1360.43 112.992V108.992ZM1349.61 110.775C1345.92 112.003 1342.6 114.123 1339.64 117.082L1342.47 119.91C1345.04 117.344 1347.84 115.581 1350.87 114.569L1349.61 110.775ZM1339.64 117.082C1336.68 120.044 1334.38 124.07 1332.67 129.046L1336.45 130.346C1338.03 125.765 1340.06 122.324 1342.47 119.91L1339.64 117.082ZM1332.67 129.037C1330.93 134.029 1330.1 140.321 1330.1 147.84H1334.1C1334.1 140.575 1334.91 134.771 1336.45 130.355L1332.67 129.037ZM1332.88 146L1316.87 139.168L1315.3 142.848L1331.31 149.68L1332.88 146ZM1318.08 141.008C1318.08 130.966 1320.01 121.93 1323.82 113.863L1320.21 112.153C1316.11 120.812 1314.08 130.442 1314.08 141.008H1318.08ZM1323.82 113.877C1327.69 105.847 1333.34 99.4867 1340.78 94.7607L1338.64 91.3833C1330.56 96.5132 1324.41 103.444 1320.21 112.139L1323.82 113.877ZM1340.8 94.7533C1348.17 90.0018 1357.33 87.568 1368.38 87.568V83.568C1356.74 83.568 1346.78 86.1369 1338.63 91.3907L1340.8 94.7533ZM1368.38 87.568C1377.14 87.568 1384.19 89.0292 1389.65 91.8276L1391.47 88.2684C1385.28 85.0935 1377.55 83.568 1368.38 83.568V87.568ZM1389.65 91.8276C1395.24 94.6932 1399.61 98.3125 1402.84 102.664L1406.05 100.28C1402.41 95.3728 1397.53 91.3761 1391.47 88.2684L1389.65 91.8276ZM1402.84 102.664C1406.15 107.123 1408.58 111.853 1410.16 116.856L1413.97 115.656C1412.26 110.206 1409.62 105.079 1406.05 100.28L1402.84 102.664ZM1410.16 116.856C1411.76 121.97 1412.78 126.797 1413.21 131.342L1417.19 130.962C1416.73 126.099 1415.65 120.996 1413.97 115.656L1410.16 116.856ZM1413.21 131.376C1413.73 135.97 1413.98 139.658 1413.98 142.464H1417.98C1417.98 139.446 1417.71 135.593 1417.19 130.928L1413.21 131.376ZM1413.98 142.464V210H1417.98V142.464H1413.98ZM1415.98 208H1388.66V212H1415.98V208ZM1306.77 210V48.72H1302.77V210H1306.77ZM1304.77 50.72H1328.85V46.72H1304.77V50.72ZM1326.85 48.72V133.616H1330.85V48.72H1326.85ZM1328.85 135.616H1332.1V131.616H1328.85V135.616ZM1330.1 133.616V210H1334.1V133.616H1330.1ZM1332.1 208H1304.77V212H1332.1V208Z" fill="#4A7D91" mask="url(#path-3-outside-2_6_7)"/>
</g>
<defs>
<clipPath id="clip0_6_7">
<rect width="1440" height="150" fill="white"/>
</clipPath>
</defs>
</svg>
